<?xml version="1.0" encoding="utf-8"?>
<!-- Generator: Adobe Illustrator 21.0.0, SVG Export Plug-In . SVG Version: 6.00 Build 0)  -->
<svg version="1.1" id="Icons" xmlns="http://www.w3.org/2000/svg" xmlns:xlink="http://www.w3.org/1999/xlink" x="0px" y="0px"
	 viewBox="0 0 24 16.5" style="enable-background:new 0 0 24 16.5;" xml:space="preserve">
<g>
	<path d="M13.8,0.2c-0.8-0.4-1.7-0.3-2.3,0.2L5,4.5H2.2C1,4.5,0,5.5,0,6.7v3C0,11,1,12,2.2,12H5l6.4,4.1c0.4,0.3,0.9,0.5,1.3,0.5
		c0.3,0,0.7-0.1,1-0.2c0.8-0.4,1.2-1.2,1.2-2v-12C15,1.4,14.5,0.6,13.8,0.2z M1.5,9.7v-3C1.5,6.3,1.8,6,2.2,6h2.3v4.5H2.2
		C1.8,10.5,1.5,10.2,1.5,9.7z M13.5,14.2c0,0.3-0.2,0.5-0.4,0.7c-0.3,0.1-0.6,0.1-0.8-0.1l-6.3-4V5.7l6.3-4c0.2-0.2,0.5-0.2,0.8-0.1
		c0.3,0.1,0.4,0.4,0.4,0.7V14.2z"/>
	<path d="M21.7,8.3l2.1-2.1c0.3-0.3,0.3-0.8,0-1.1s-0.8-0.3-1.1,0l-2.1,2.1l-2.1-2.1c-0.3-0.3-0.8-0.3-1.1,0s-0.3,0.8,0,1.1l2.1,2.1
		l-2.1,2.1c-0.3,0.3-0.3,0.8,0,1.1c0.1,0.1,0.3,0.2,0.5,0.2s0.4-0.1,0.5-0.2l2.1-2.1l2.1,2.1c0.1,0.1,0.3,0.2,0.5,0.2
		s0.4-0.1,0.5-0.2c0.3-0.3,0.3-0.8,0-1.1L21.7,8.3z"/>
</g>
</svg>
