<?xml version="1.0" encoding="utf-8"?>
<svg version="1.1" id="Icons" xmlns="http://www.w3.org/2000/svg" xmlns:xlink="http://www.w3.org/1999/xlink" x="0px" y="0px"
	 viewBox="0 0 24 6.8" style="enable-background:new 0 0 24 6.8;" xml:space="preserve">
<g id="Interface-Essential__x2F__Menu__x2F__navigation-menu-horizontal">
	<g id="Group_27">
		<g id="navigation-menu-horizontal">
			<g id="Oval_12">
				<path d="M3.4,6.7C1.5,6.7,0,5.2,0,3.4S1.5,0,3.4,0s3.4,1.5,3.4,3.4S5.2,6.7,3.4,6.7z M3.4,1.5c-1,0-1.9,0.8-1.9,1.9
					s0.8,1.9,1.9,1.9s1.9-0.8,1.9-1.9S4.4,1.5,3.4,1.5z"/>
			</g>
			<g id="Oval_13">
				<path d="M20.6,6.7c-1.9,0-3.4-1.5-3.4-3.4S18.8,0,20.6,0S24,1.5,24,3.4S22.5,6.7,20.6,6.7z M20.6,1.5c-1,0-1.9,0.8-1.9,1.9
					s0.8,1.9,1.9,1.9s1.9-0.8,1.9-1.9S21.7,1.5,20.6,1.5z"/>
			</g>
			<g id="Oval_14">
				<path d="M12,6.7c-1.9,0-3.4-1.5-3.4-3.4S10.1,0,12,0s3.4,1.5,3.4,3.4S13.9,6.7,12,6.7z M12,1.5c-1,0-1.9,0.8-1.9,1.9
					S11,5.2,12,5.2s1.9-0.8,1.9-1.9S13,1.5,12,1.5z"/>
			</g>
		</g>
	</g>
</g>
</svg>
