<?xml version="1.0" encoding="utf-8"?>
<svg version="1.1" id="Icons" xmlns="http://www.w3.org/2000/svg" xmlns:xlink="http://www.w3.org/1999/xlink" x="0px" y="0px"
	 viewBox="0 0 25.5 13.9" style="enable-background:new 0 0 25.5 13.9;" xml:space="preserve">
<g id="Arrows-Diagrams__x2F__Arrows__x2F__arrow-down-1">
	<g id="Group_51">
		<g id="Regular_51">
			<g id="Shape_225">
				<path d="M12.8,13.9c-0.6,0-1.2-0.2-1.6-0.7L0.4,2.6C-0.1,2-0.1,1,0.4,0.4C1-0.1,2-0.1,2.6,0.4l10.2,10.2L22.9,0.4
					c0.6-0.6,1.5-0.6,2.1,0c0.6,0.6,0.6,1.5,0,2.1L14.3,13.3C13.9,13.7,13.3,13.9,12.8,13.9z M12.2,11.2
					C12.2,11.2,12.2,11.2,12.2,11.2L12.2,11.2z M13.3,11.2L13.3,11.2C13.3,11.2,13.3,11.2,13.3,11.2z"/>
			</g>
		</g>
	</g>
</g>
</svg>
