<?xml version="1.0" encoding="utf-8"?>
<!-- Generator: Adobe Illustrator 21.0.0, SVG Export Plug-In . SVG Version: 6.00 Build 0)  -->
<svg version="1.1" id="Icons" xmlns="http://www.w3.org/2000/svg" xmlns:xlink="http://www.w3.org/1999/xlink" x="0px" y="0px"
	 viewBox="0 0 24 18.8" style="enable-background:new 0 0 24 18.8;" xml:space="preserve">
<g id="Shape_258">
	<path d="M9.7,13.5c-0.3,0-0.6-0.1-0.9-0.2c-0.5-0.3-0.9-0.9-0.9-1.5V7c0-0.6,0.3-1.2,0.9-1.5c0.5-0.3,1.1-0.3,1.7-0.1c0,0,0,0,0,0
		l4.5,2.1c0.7,0.3,1.2,1,1.2,1.8s-0.5,1.5-1.2,1.8l-4.5,2.1C10.2,13.4,9.9,13.5,9.7,13.5z M9.7,6.8c-0.1,0-0.1,0-0.2,0
		C9.4,6.8,9.4,6.9,9.4,7v4.8c0,0.1,0,0.1,0.1,0.2C9.6,12,9.7,12,9.8,12l4.5-2.1c0.2-0.1,0.3-0.3,0.3-0.5S14.5,9,14.3,8.9L9.8,6.8
		C9.8,6.8,9.7,6.8,9.7,6.8z"/>
</g>
<g id="Rectangle-path_35">
	<path d="M20.3,18.8H3.8C1.7,18.8,0,17.1,0,15V3.8C0,1.7,1.7,0,3.8,0h16.5C22.3,0,24,1.7,24,3.8V15C24,17.1,22.3,18.8,20.3,18.8z
		 M3.8,1.5c-1.2,0-2.3,1-2.3,2.3V15c0,1.2,1,2.3,2.3,2.3h16.5c1.2,0,2.3-1,2.3-2.3V3.8c0-1.2-1-2.3-2.3-2.3H3.8z"/>
</g>
</svg>
