<?xml version="1.0" encoding="utf-8"?>
<!-- Generator: Adobe Illustrator 21.0.0, SVG Export Plug-In . SVG Version: 6.00 Build 0)  -->
<svg version="1.1" id="Icons" xmlns="http://www.w3.org/2000/svg" xmlns:xlink="http://www.w3.org/1999/xlink" x="0px" y="0px"
	 viewBox="0 0 24 21.8" style="enable-background:new 0 0 24 21.8;" xml:space="preserve">
<g id="Social-Medias-Rewards-Rating__x2F__Rating__x2F__rating-star-winner">
	<g id="Group_82">
		<g id="rating-star-winner">
			<g id="Shape_271">
				<path d="M14.6,21.8c-0.3,0-0.7-0.1-1-0.4c-0.5-0.4-0.6-1.1-0.4-1.6l1.2-2.8c0.2-0.4,0.6-0.6,1-0.4c0.4,0.2,0.6,0.6,0.4,1
					l-1.1,2.6l2.9-1.6c0.2-0.1,0.5-0.1,0.7,0l2.9,1.6l-1.2-2.7c-0.1-0.3-0.1-0.6,0.1-0.8l2.2-2.4h-2.3c-0.3,0-0.5-0.1-0.7-0.4
					l-1.3-2.3c-0.2-0.4-0.1-0.8,0.3-1c0.4-0.2,0.8-0.1,1,0.3l1,1.9h2c0.6,0,1.1,0.3,1.3,0.9c0.2,0.5,0.1,1.2-0.3,1.6l-1.9,2.1
					l1.1,2.5c0.2,0.6,0.1,1.2-0.4,1.6c-0.5,0.4-1.1,0.5-1.7,0.2L18,20.1l-2.7,1.5C15.1,21.7,14.8,21.8,14.6,21.8z M14.7,20.4
					L14.7,20.4L14.7,20.4z M22.5,14.2C22.5,14.2,22.5,14.2,22.5,14.2L22.5,14.2z"/>
			</g>
			<g id="Shape_272">
				<path d="M2.6,21.8c-0.3,0-0.7-0.1-1-0.4C1.2,21,1,20.3,1.3,19.8l1.1-2.5l-1.9-2.1c-0.4-0.4-0.5-1-0.3-1.5
					c0.2-0.5,0.8-0.9,1.3-0.9h2l1-1.9c0.2-0.4,0.7-0.5,1-0.3c0.4,0.2,0.5,0.7,0.3,1l-1.3,2.3c-0.1,0.2-0.4,0.4-0.7,0.4H1.6l2.2,2.4
					C4,16.9,4,17.2,3.9,17.5l-1.2,2.7l2.9-1.6c0.2-0.1,0.5-0.1,0.7,0l2.9,1.6l-1.1-2.6c-0.2-0.4,0-0.8,0.4-1c0.4-0.2,0.8,0,1,0.4
					l1.2,2.8c0.2,0.6,0.1,1.2-0.4,1.6c-0.5,0.4-1.1,0.5-1.7,0.2L6,20.1l-2.7,1.5C3.1,21.7,2.8,21.8,2.6,21.8z M2.7,20.4L2.7,20.4
					L2.7,20.4z M1.4,14.3C1.4,14.3,1.4,14.3,1.4,14.3C1.4,14.3,1.4,14.3,1.4,14.3L1.4,14.3z"/>
			</g>
			<g id="Shape_273">
				<path d="M16,15c-0.2,0-0.4,0-0.6-0.1l-3.5-1.8l-3.5,1.8c-0.4,0.2-1,0.2-1.3-0.2c-0.4-0.3-0.5-0.8-0.4-1.3l1.1-3.9L4.9,6.7
					C4.5,6.4,4.4,5.9,4.6,5.4c0.2-0.4,0.6-0.8,1-0.8L9,4.3l1.8-3.6C11,0.3,11.5,0,11.9,0c0.5,0,0.9,0.3,1.1,0.7l1.8,3.6l3.4,0.3
					c0.5,0,0.9,0.4,1,0.8s0,1-0.3,1.3l-2.8,2.8l1.1,3.9c0.1,0.5,0,1-0.4,1.3C16.6,14.9,16.3,15,16,15z M15.8,13.8
					C15.8,13.8,15.8,13.8,15.8,13.8L15.8,13.8z M8.1,13.8L8.1,13.8C8.1,13.8,8.1,13.8,8.1,13.8z M11.9,11.5c0.1,0,0.2,0,0.3,0.1
					l3.3,1.7l-1-3.7c-0.1-0.3,0-0.5,0.2-0.7l2.8-2.8l-3.3-0.3c-0.3,0-0.5-0.2-0.6-0.4l-1.8-3.5l-1.8,3.5c-0.1,0.2-0.3,0.4-0.6,0.4
					L6.3,6.1l2.8,2.8C9.3,9,9.3,9.3,9.3,9.6l-1,3.7l3.3-1.7C11.7,11.5,11.8,11.5,11.9,11.5z M18.1,6.1L18.1,6.1L18.1,6.1z"/>
			</g>
		</g>
	</g>
</g>
</svg>
