<?xml version="1.0" encoding="utf-8"?>
<!-- Generator: Adobe Illustrator 21.0.0, SVG Export Plug-In . SVG Version: 6.00 Build 0)  -->
<svg version="1.1" id="Icons" xmlns="http://www.w3.org/2000/svg" xmlns:xlink="http://www.w3.org/1999/xlink" x="0px" y="0px"
	 viewBox="0 0 18.8 15" style="enable-background:new 0 0 18.8 15;" xml:space="preserve">
<g>
	<path d="M6.8,5.6c0-0.6-0.5-1.1-1.1-1.1S4.5,5,4.5,5.6S5,6.8,5.6,6.8S6.8,6.2,6.8,5.6z M5.3,5.6c0-0.2,0.2-0.4,0.4-0.4S6,5.4,6,5.6
		S5.8,6,5.6,6S5.3,5.8,5.3,5.6z"/>
	<path d="M17,0H1.8C0.8,0,0,0.8,0,1.8v11.5c0,1,0.8,1.8,1.8,1.8H17c1,0,1.8-0.8,1.8-1.8V1.8C18.8,0.8,18,0,17,0z M1.5,13.3V1.8
		c0-0.1,0.1-0.3,0.3-0.3H17c0.1,0,0.3,0.1,0.3,0.3v9.9l-3.8-4.3c-0.5-0.5-1.1-0.8-1.8-0.8c-0.7,0-1.3,0.4-1.7,1l-4.2,6H1.8
		C1.6,13.5,1.5,13.4,1.5,13.3z M16.9,13.5H7.5l3.6-5.1c0.1-0.2,0.3-0.3,0.6-0.3c0.2,0,0.5,0.1,0.6,0.3L16.9,13.5z"/>
</g>
</svg>
