<?xml version="1.0" encoding="utf-8"?>
<!-- Generator: Adobe Illustrator 21.0.0, SVG Export Plug-In . SVG Version: 6.00 Build 0)  -->
<svg version="1.1" id="Icons" xmlns="http://www.w3.org/2000/svg" xmlns:xlink="http://www.w3.org/1999/xlink" x="0px" y="0px"
	 viewBox="0 0 24 21" style="enable-background:new 0 0 24 21;" xml:space="preserve">
<g>
	<path d="M21.8,9C21.3,9,21,9.3,21,9.8v9c0,0.4-0.3,0.8-0.8,0.8h-18c-0.4,0-0.8-0.3-0.8-0.8V6h12c0.4,0,0.8-0.3,0.8-0.8
		s-0.3-0.8-0.8-0.8h-12V2.3c0-0.4,0.3-0.8,0.8-0.8h16.5c0.4,0,0.8-0.3,0.8-0.8S19.2,0,18.8,0H2.3C1,0,0,1,0,2.3v16.5
		C0,20,1,21,2.3,21h18c1.2,0,2.3-1,2.3-2.3v-9C22.5,9.3,22.2,9,21.8,9z"/>
	<path d="M23.3,2.2c-0.9-0.9-2.4-0.9-3.3,0l-5.7,5.7c-0.1,0.1-0.2,0.2-0.2,0.4l-0.6,2.8c0,0.2,0,0.5,0.2,0.7
		c0.1,0.1,0.3,0.2,0.5,0.2c0,0,0.1,0,0.1,0l2.8-0.6c0.1,0,0.3-0.1,0.4-0.2l5.7-5.7c0,0,0,0,0,0C24.2,4.6,24.2,3.1,23.3,2.2z
		 M22.3,4.4L16.7,10l-1.5,0.3l0.3-1.5l5.6-5.6c0.3-0.3,0.9-0.3,1.2,0C22.6,3.6,22.6,4.1,22.3,4.4z"/>
	<path d="M5.3,12h4.5c0.4,0,0.8-0.3,0.8-0.8s-0.3-0.8-0.8-0.8H5.3c-0.4,0-0.8,0.3-0.8,0.8S4.8,12,5.3,12z"/>
	<path d="M5.3,16.5H15c0.4,0,0.8-0.3,0.8-0.8S15.4,15,15,15H5.3c-0.4,0-0.8,0.3-0.8,0.8S4.8,16.5,5.3,16.5z"/>
</g>
</svg>
