<?xml version="1.0" encoding="utf-8"?>
<!-- Generator: Adobe Illustrator 21.0.0, SVG Export Plug-In . SVG Version: 6.00 Build 0)  -->
<svg version="1.1" id="Icons" xmlns="http://www.w3.org/2000/svg" xmlns:xlink="http://www.w3.org/1999/xlink" x="0px" y="0px"
	 viewBox="0 0 24 13.9" style="enable-background:new 0 0 24 13.9;" xml:space="preserve">
<g id="Interface-Essential__x2F__Navigate__x2F__navigation-right">
	<g id="Group_718">
		<g id="navigation-right">
			<g id="Shape_3024">
				<path d="M0.8,13.9c-0.4,0-0.7-0.3-0.8-0.7C0,8.4,2.6,4.1,6.8,1.9c4-2.1,8.8-1.9,12.7,0.5l2-2c0.4-0.4,1.1-0.6,1.6-0.3
					C23.6,0.3,24,0.9,24,1.5v10.2c0,1.2-1,2.3-2.3,2.3H11.6c0,0,0,0,0,0c-0.6,0-1.1-0.4-1.4-0.9c-0.2-0.6-0.1-1.2,0.3-1.6l2.7-2.7
					c-1.3-1.4-3.1-2.2-5-2.2c-3.7,0-6.7,3-6.7,6.8C1.5,13.6,1.2,13.9,0.8,13.9C0.8,13.9,0.8,13.9,0.8,13.9z M8.3,4.9
					c2.6,0,5,1.2,6.6,3.3C15,8.6,15,9,14.8,9.3l-3.2,3.2l10.2,0c0.4,0,0.8-0.3,0.8-0.8V1.5l-2.4,2.4c-0.3,0.3-0.7,0.3-1,0.1
					c-3.4-2.4-7.9-2.7-11.6-0.8C6.1,4,4.9,5,3.9,6.2C5.2,5.4,6.7,4.9,8.3,4.9z"/>
			</g>
		</g>
	</g>
</g>
</svg>
