<?xml version="1.0" encoding="utf-8"?>
<!-- Generator: Adobe Illustrator 21.0.0, SVG Export Plug-In . SVG Version: 6.00 Build 0)  -->
<svg version="1.1" id="Isolation_Mode" xmlns="http://www.w3.org/2000/svg" xmlns:xlink="http://www.w3.org/1999/xlink" x="0px"
	 y="0px" viewBox="0 0 24 24.2" style="enable-background:new 0 0 24 24.2;" xml:space="preserve">
<g id="picture-landscape_3_">
	<g id="Shape_128_2_">
		<path d="M23.3,12.9H0.8c-0.4,0-0.8-0.3-0.8-0.8s0.3-0.8,0.8-0.8h22.5c0.4,0,0.8,0.3,0.8,0.8S23.7,12.9,23.3,12.9z"/>
	</g>
	<g>
		<path d="M22.5,7.1c0,0.4-0.3,0.8-0.8,0.8H2.3c-0.4,0-0.8-0.3-0.8-0.8V0.7C1.5,0.3,1.2,0,0.8,0h0C0.3,0,0,0.3,0,0.7v6.4
			c0,1.2,1,2.3,2.3,2.3h19.5c1.2,0,2.3-1,2.3-2.3V0.7C24,0.3,23.7,0,23.3,0l0,0c-0.4,0-0.8,0.3-0.8,0.7V7.1z"/>
	</g>
	<g>
		<path d="M1.5,17.1c0-0.4,0.3-0.8,0.8-0.8h19.5c0.4,0,0.8,0.3,0.8,0.8v6.4c0,0.4,0.3,0.7,0.8,0.7l0,0c0.4,0,0.8-0.3,0.8-0.7v-6.4
			c0-1.2-1-2.2-2.3-2.2H2.3c-1.2,0-2.3,1-2.3,2.2l0,6.4c0,0.4,0.3,0.7,0.7,0.7h0c0.4,0,0.7-0.3,0.7-0.7V17.1z"/>
	</g>
</g>
</svg>
