<?xml version="1.0" encoding="utf-8"?>
<!-- Generator: Adobe Illustrator 21.0.0, SVG Export Plug-In . SVG Version: 6.00 Build 0)  -->
<svg version="1.1" id="Icons" xmlns="http://www.w3.org/2000/svg" xmlns:xlink="http://www.w3.org/1999/xlink" x="0px" y="0px"
	 viewBox="0 0 24 18.8" style="enable-background:new 0 0 24 18.8;" xml:space="preserve">
<style type="text/css">
	.st0{fill:none;stroke:#000000;stroke-width:1.5;stroke-linecap:round;stroke-linejoin:round;}
</style>
<g id="Group_32_2_">
	<g id="picture-landscape_2_">
		<path d="M21.8,0H2.3C1,0,0,1,0,2.3v14.3c0,1.2,1,2.3,2.3,2.3h19.5c1.2,0,2.3-1,2.3-2.3V2.3C24,1,23,0,21.8,0z M22.5,16.5
			c0,0.4-0.3,0.8-0.8,0.8H6.2l3.1-4.2c0.1-0.2,0.3-0.3,0.5-0.3c0.2,0,0.4,0.1,0.6,0.2l1,1c0.2,0.2,0.4,0.2,0.6,0.2
			c0.2,0,0.4-0.1,0.5-0.3l3.3-4.4c0.3-0.4,0.9-0.4,1.2,0l2.7,3.6c0.2,0.3,0.7,0.4,1,0.1c0.3-0.2,0.4-0.7,0.1-1.1l-2.7-3.6
			c-0.4-0.6-1.1-0.9-1.8-0.9c-0.7,0-1.4,0.3-1.8,0.9l-2.8,3.7l-0.4-0.4c-0.5-0.5-1.1-0.7-1.8-0.7c-0.7,0-1.2,0.4-1.6,0.9l-3.5,4.6
			c-0.1,0.1-0.1,0.3-0.1,0.5H2.3c-0.4,0-0.8-0.3-0.8-0.8V2.3c0-0.4,0.3-0.8,0.8-0.8h19.5c0.4,0,0.8,0.3,0.8,0.8V16.5z"/>
		<g id="Oval_32_2_">
			<path d="M6.4,9C4.9,9,3.8,7.8,3.8,6.4s1.2-2.6,2.6-2.6S9,4.9,9,6.4S7.8,9,6.4,9z M6.4,5.3c-0.6,0-1.1,0.5-1.1,1.1
				s0.5,1.1,1.1,1.1S7.5,7,7.5,6.4S7,5.3,6.4,5.3z"/>
		</g>
		<g id="Shape_128_4_">
			<path class="st0" d="M23.3,17.3"/>
		</g>
		<g id="Shape_128_3_">
			<path class="st0" d="M0.8,17.3"/>
		</g>
	</g>
</g>
</svg>
