<?xml version="1.0" encoding="utf-8"?>
<!-- Generator: Adobe Illustrator 21.0.0, SVG Export Plug-In . SVG Version: 6.00 Build 0)  -->
<svg version="1.1" id="Layer_1" xmlns="http://www.w3.org/2000/svg" xmlns:xlink="http://www.w3.org/1999/xlink" x="0px" y="0px"
	 viewBox="0 0 21.3 15.3" style="enable-background:new 0 0 21.3 15.3;" xml:space="preserve">
<path d="M5.4,5c0.1-0.2,0.2-0.4,0.4-0.7C6.6,3.2,8,2.1,9.9,1.2c0.3-0.2,0.4-0.5,0.3-0.7C10.1,0.2,9.9,0,9.5,0
	c-4,0.5-6.8,2.2-8.3,5.1c-0.5,1-0.9,2-1.1,3.2C0,9,0,9.5,0,10.1c0,2.8,2.3,5.1,5.1,5.1s5.1-2.3,5.1-5.1C10.3,7.4,8.1,5.1,5.4,5z
	 M4.2,5.8C4.3,6,4.6,6.3,5.1,6.3C7.3,6.3,9,8,9,10.1S7.3,14,5.1,14s-3.9-1.7-3.9-3.9c0-0.5,0-1,0.1-1.7c0.2-1,0.5-1.9,0.9-2.8
	C3.4,3.8,5,2.7,6,2.3C5.5,2.7,5.1,3.1,4.8,3.6C4.2,4.4,4,5.3,4.2,5.8z"/>
<path d="M16.4,5c0.1-0.3,0.2-0.4,0.4-0.7c0.8-1.1,2.3-2.2,4.1-3.1c0.3-0.2,0.4-0.5,0.3-0.7C21.1,0.2,20.9,0,20.5,0
	c-4,0.5-6.8,2.2-8.3,5.1c-0.5,1-0.9,2-1.1,3.2C11,9,11,9.5,11,10.1c0,2.8,2.3,5.1,5.1,5.1s5.1-2.3,5.1-5.1C21.3,7.4,19.1,5.1,16.4,5
	z M15.2,5.8c0.1,0.2,0.4,0.5,0.9,0.5c2.1,0,3.9,1.7,3.9,3.9S18.3,14,16.1,14s-3.9-1.7-3.9-3.9c0-0.5,0-1,0.1-1.7
	c0.2-1,0.5-1.9,0.9-2.8c1-1.9,2.7-2.9,3.6-3.4c-0.5,0.4-0.9,0.9-1.2,1.3C15.2,4.4,15,5.3,15.2,5.8z"/>
</svg>
