<?xml version="1.0" encoding="utf-8"?>
<!-- Generator: Adobe Illustrator 21.0.0, SVG Export Plug-In . SVG Version: 6.00 Build 0)  -->
<svg version="1.1" id="Icons" xmlns="http://www.w3.org/2000/svg" xmlns:xlink="http://www.w3.org/1999/xlink" x="0px" y="0px"
	 viewBox="0 0 24 24" style="enable-background:new 0 0 24 24;" xml:space="preserve">
<g id="Interface-Essential__x2F__Form-Validation__x2F__check-circle-1">
	<g id="Group_389">
		<g id="check-circle-1">
			<g id="Shape_1754">
				<path d="M9.3,17.9C9.3,17.9,9.3,17.9,9.3,17.9c-0.6,0-1.2-0.3-1.5-0.8l-2.4-3.5c-0.2-0.3-0.2-0.8,0.2-1c0.3-0.2,0.8-0.2,1,0.2
					l2.5,3.5c0.1,0.1,0.2,0.1,0.2,0.1c0.1,0,0.2,0,0.2-0.1l7.9-9.9C17.7,6,18.1,6,18.5,6.2c0.3,0.3,0.4,0.7,0.1,1.1l-7.8,9.9
					C10.4,17.7,9.9,17.9,9.3,17.9z"/>
			</g>
			<g id="Oval_227">
				<path d="M12,24C5.4,24,0,18.6,0,12S5.4,0,12,0s12,5.4,12,12S18.6,24,12,24z M12,1.5C6.2,1.5,1.5,6.2,1.5,12S6.2,22.5,12,22.5
					S22.5,17.8,22.5,12S17.8,1.5,12,1.5z"/>
			</g>
		</g>
	</g>
</g>
</svg>
