<?xml version="1.0" encoding="utf-8"?>
<!-- Generator: Adobe Illustrator 21.0.0, SVG Export Plug-In . SVG Version: 6.00 Build 0)  -->
<svg version="1.1" id="Icons" xmlns="http://www.w3.org/2000/svg" xmlns:xlink="http://www.w3.org/1999/xlink" x="0px" y="0px"
	 viewBox="0 0 25.1 19.4" style="enable-background:new 0 0 25.1 19.4;" xml:space="preserve">
<path d="M0,0.8L0,0.8C0,0.4,0.4,0,0.8,0h23.5c0.4,0,0.8,0.4,0.8,0.8v0c0,0.4-0.4,0.8-0.8,0.8H0.8C0.4,1.6,0,1.3,0,0.8z"/>
<path d="M0,6.5L0,6.5C0,6,0.4,5.7,0.8,5.7h17.8c0.4,0,0.8,0.4,0.8,0.8v0c0,0.4-0.4,0.8-0.8,0.8H0.8C0.4,7.3,0,6.9,0,6.5z"/>
<path d="M0,12.5L0,12.5c0-0.4,0.4-0.8,0.8-0.8h23.5c0.4,0,0.8,0.4,0.8,0.8v0c0,0.4-0.4,0.8-0.8,0.8H0.8C0.4,13.3,0,13,0,12.5z"/>
<path d="M0,18.6L0,18.6c0-0.4,0.4-0.8,0.8-0.8h19.5c0.4,0,0.8,0.4,0.8,0.8v0c0,0.4-0.4,0.8-0.8,0.8H0.8C0.4,19.4,0,19,0,18.6z"/>
</svg>
